<?xml version="1.0" standalone="no"?>
<!DOCTYPE svg PUBLIC "-//W3C//DTD SVG 20010904//EN"
 "http://www.w3.org/TR/2001/REC-SVG-20010904/DTD/svg10.dtd">
<svg version="1.0" xmlns="http://www.w3.org/2000/svg"
 width="712.000000pt" height="712.000000pt" viewBox="0 0 712.000000 712.000000"
 preserveAspectRatio="xMidYMid meet">
<metadata>
Created by potrace 1.14, written by Peter Selinger 2001-2017
</metadata>
<g transform="translate(0.000000,712.000000) scale(0.100000,-0.100000)"
fill="#000000" stroke="none">
<path d="M694 7085 c-8 -21 3 -48 19 -43 19 7 21 38 2 38 -9 0 -13 5 -10 10 3
6 4 10 0 10 -3 0 -8 -7 -11 -15z"/>
<path d="M1042 7033 c-6 -2 -9 -10 -6 -15 5 -7 2 -8 -6 -3 -7 4 -16 2 -20 -5
-9 -15 -1 -52 10 -45 5 3 11 1 15 -5 9 -14 51 -13 62 3 5 6 10 27 12 45 2 29
0 32 -26 31 -15 0 -34 -3 -41 -6z"/>
<path d="M1804 7005 c-12 -29 -13 -44 -5 -62 9 -21 17 -23 76 -22 72 1 95 14
95 54 0 32 -35 54 -99 62 l-51 6 -16 -38z"/>
<path d="M1515 6903 c-10 -3 -31 -13 -45 -21 -69 -45 -48 -101 38 -102 38 0
44 -3 59 -34 14 -31 48 -56 74 -56 5 0 18 19 28 41 25 55 14 87 -48 139 -44
38 -62 44 -106 33z"/>
<path d="M1910 6805 c0 -40 4 -57 15 -61 16 -6 80 42 80 60 0 8 -76 56 -91 56
-2 0 -4 -25 -4 -55z"/>
<path d="M3318 6845 c-2 -1 -50 -5 -108 -9 -58 -4 -118 -9 -135 -11 -16 -3
-46 -7 -65 -9 -19 -3 -48 -7 -65 -10 -35 -7 -87 -16 -130 -23 -16 -3 -33 -10
-37 -16 -4 -7 -8 -9 -8 -6 0 13 -172 -32 -338 -87 -92 -31 -169 -58 -172 -61
-3 -3 8 -15 24 -28 l29 -23 -50 -73 c-73 -107 -93 -113 -109 -31 -5 25 0 41
21 73 14 23 24 44 20 47 -7 7 -168 -71 -268 -130 -38 -22 -71 -38 -73 -35 -3
2 3 21 12 40 22 46 11 75 -40 102 -49 27 -56 15 -56 -105 l0 -95 -51 -33 c-61
-40 -80 -36 -116 21 -60 93 -96 109 -149 64 -22 -20 -27 -33 -29 -77 -1 -30
-6 -55 -11 -56 -5 -1 -22 -5 -37 -8 -16 -4 -48 -25 -73 -48 -41 -38 -45 -40
-39 -17 7 29 -14 53 -41 47 -10 -2 -29 -24 -42 -51 -14 -26 -31 -47 -38 -47
-7 0 -22 -12 -33 -26 -23 -30 -16 -48 22 -58 15 -3 32 -24 50 -61 l27 -56 -34
-14 c-44 -19 -57 -40 -44 -76 9 -26 5 -34 -44 -93 -29 -36 -55 -65 -58 -65 -3
-1 -10 14 -15 32 -8 24 -21 38 -55 55 -47 23 -95 29 -105 12 -4 -6 24 -44 60
-85 l67 -75 -33 -45 c-19 -24 -40 -45 -48 -45 -26 0 -51 -33 -67 -86 -8 -29
-37 -90 -65 -136 -27 -45 -45 -84 -40 -86 16 -5 149 76 161 99 9 15 6 26 -11
50 -24 34 -21 47 25 104 18 22 26 26 41 18 12 -7 14 -13 6 -17 -14 -9 -15
-103 -1 -111 16 -10 11 -46 -9 -63 -21 -19 -54 -99 -46 -111 2 -5 -4 -16 -16
-26 -19 -18 -22 -18 -83 3 -35 12 -71 22 -80 22 -8 0 -25 -19 -36 -42 -12 -24
-31 -61 -43 -84 -12 -22 -35 -69 -51 -105 -15 -35 -37 -83 -47 -106 -10 -24
-19 -47 -19 -53 0 -6 -4 -18 -10 -28 -10 -18 -60 -171 -78 -237 -51 -194 -84
-362 -98 -510 -16 -155 2 -724 26 -840 5 -27 14 -79 20 -115 8 -58 24 -118 89
-350 39 -138 183 -461 273 -609 21 -34 38 -65 38 -68 0 -15 164 -243 254 -353
129 -158 364 -385 521 -506 49 -38 270 -186 319 -214 20 -11 53 -30 73 -42 95
-54 408 -198 432 -198 5 0 30 -8 57 -19 27 -10 83 -29 124 -41 41 -12 86 -26
100 -30 14 -4 52 -13 85 -20 33 -6 76 -15 95 -20 19 -5 67 -14 105 -20 94 -15
158 -26 230 -41 36 -7 151 -12 287 -11 317 0 424 11 628 64 63 17 131 34 150
38 19 5 53 14 75 20 22 6 52 14 68 17 15 3 30 9 33 14 3 5 16 9 29 9 13 0 27
5 30 10 3 6 16 10 29 10 12 0 27 5 34 12 6 6 15 8 19 3 5 -4 2 -10 -4 -12 -15
-5 -17 -39 -4 -47 5 -4 21 -2 35 4 17 6 35 6 53 -1 58 -22 102 20 104 98 l0
38 137 68 c75 37 163 83 194 102 50 30 58 32 58 16 0 -10 11 -23 25 -29 32
-15 141 -16 150 -2 3 5 38 10 76 10 65 0 72 -2 102 -33 18 -17 39 -45 47 -61
20 -40 68 -86 88 -86 9 0 31 8 48 19 34 21 56 79 47 123 -3 17 -1 28 6 29 6 1
16 3 21 4 6 1 20 3 31 4 12 0 37 17 55 37 33 34 34 35 34 11 0 -32 23 -51 55
-43 17 4 25 13 25 28 0 13 20 40 51 69 43 39 51 52 47 74 -4 20 -2 24 11 20
24 -7 104 9 108 22 6 18 -61 45 -103 41 -36 -3 -39 -5 -37 -30 3 -48 -29 -34
-59 27 -16 30 -28 57 -28 60 0 3 11 5 23 5 13 0 32 9 42 20 16 18 17 26 7 71
-13 54 -10 69 13 69 31 0 45 42 45 131 0 70 4 91 18 110 18 21 21 22 68 9 27
-7 53 -17 58 -21 21 -19 55 -8 77 23 30 41 32 117 5 147 -18 20 -18 22 -1 41
10 11 22 20 27 20 5 0 31 14 58 32 37 24 57 47 81 95 37 72 34 93 -13 93 -33
0 -101 -20 -114 -33 -4 -4 -18 -7 -30 -7 -13 0 -26 -4 -29 -10 -3 -5 -18 -10
-32 -10 -16 0 -27 -7 -30 -20 -4 -13 -14 -20 -30 -20 -24 0 -25 1 -9 24 25 38
54 93 108 199 34 65 55 97 67 97 30 0 41 22 41 82 0 36 7 74 19 101 29 61 101
282 101 305 0 12 4 23 9 26 5 3 11 20 14 38 3 18 11 56 17 83 101 457 104 915
9 1353 -17 79 -31 137 -39 162 -4 14 -13 45 -20 70 -105 375 -307 759 -575
1093 -112 139 -321 348 -460 461 -225 181 -520 358 -770 461 -127 53 -363 132
-448 150 -40 8 -88 19 -107 25 -19 5 -53 12 -75 15 -40 5 -57 8 -105 19 -36 8
-111 16 -220 23 -52 3 -106 6 -120 8 -14 1 -28 -3 -32 -9 -6 -8 -8 -8 -8 1 0
8 -35 12 -124 11 -69 0 -126 -1 -128 -3z m-792 -299 l31 -1 -13 -43 c-18 -59
-21 -62 -57 -62 -78 0 -95 26 -61 92 13 26 19 29 42 23 15 -4 41 -8 58 -9z
m32 -231 c-42 -39 -134 -71 -176 -60 -24 6 -17 10 53 34 44 15 94 35 110 44
48 26 53 19 13 -18z m-680 -84 c3 -15 14 -27 33 -34 36 -14 37 -39 8 -107 -21
-49 -54 -80 -84 -80 -8 0 -40 20 -71 45 -32 27 -65 45 -80 45 -36 0 -39 24
-10 75 26 43 29 45 74 45 31 0 55 7 72 20 32 25 54 22 58 -9z m86 23 c9 -3 16
-12 16 -19 0 -25 -17 -25 -40 0 -19 20 -20 25 -8 25 9 0 23 -3 32 -6z m-294
-10 c0 -3 -11 -19 -25 -36 -14 -16 -25 -38 -25 -49 0 -16 -4 -19 -22 -14 -44
14 -44 24 2 65 41 36 70 50 70 34z m490 -44 c0 -5 -5 -10 -11 -10 -5 0 -7 5
-4 10 3 6 8 10 11 10 2 0 4 -4 4 -10z m30 -60 c0 -5 -7 -10 -16 -10 -8 0 -12
5 -9 10 3 6 10 10 16 10 5 0 9 -4 9 -10z m345 -11 c0 -7 -8 -15 -17 -17 -18
-3 -25 18 -11 32 10 10 28 1 28 -15z m-1073 -105 l-19 -59 -13 39 c-11 36 -11
39 16 67 36 38 40 26 16 -47z m635 60 c-3 -3 -12 -4 -19 -1 -8 3 -5 6 6 6 11
1 17 -2 13 -5z m-707 -121 c7 -27 17 -53 22 -60 6 -7 4 -19 -4 -32 -27 -43
-128 -10 -128 42 0 22 78 110 90 102 4 -3 13 -26 20 -52z m364 -8 c43 -10 69
-24 94 -48 l34 -34 -23 -22 c-29 -27 -17 -53 27 -61 17 -3 24 -8 17 -13 -6 -4
-34 -2 -62 5 -40 9 -51 16 -51 31 0 27 -28 57 -53 57 -32 0 -57 29 -57 67 0
38 -4 37 74 18z m-535 -156 c1 -15 11 -38 22 -53 l22 -27 -32 -33 c-40 -42
-40 -71 4 -135 19 -28 35 -57 35 -66 0 -27 -130 -17 -170 13 -2 1 -3 53 -2
115 l3 112 34 31 c19 17 35 39 35 49 0 10 8 27 17 37 17 19 18 19 24 1 4 -10
8 -30 8 -44z m91 11 c0 -4 -6 -12 -13 -19 -18 -14 -37 5 -37 36 0 23 1 23 25
7 14 -9 25 -20 25 -24z m113 -2 c7 -23 -5 -38 -44 -58 -39 -20 -79 -26 -79
-12 0 4 10 12 23 17 12 6 26 20 32 32 13 30 60 44 68 21z m72 -73 c16 -15 25
-35 25 -56 0 -39 -49 -129 -71 -129 -44 0 -91 107 -68 153 15 29 50 57 72 57
10 0 29 -11 42 -25z m2145 -97 c146 -189 196 -261 255 -358 149 -248 240 -472
286 -704 22 -114 28 -402 9 -491 -5 -27 -13 -63 -16 -80 -44 -225 -168 -503
-337 -755 -72 -108 -246 -332 -268 -346 -15 -9 -76 56 -178 191 -243 320 -392
633 -456 955 -23 114 -23 382 -1 500 38 199 99 371 207 581 63 123 204 337
294 444 36 44 74 92 83 107 29 48 59 37 122 -44z m-1820 24 c0 -5 -9 -17 -20
-27 -19 -17 -19 -17 -7 9 12 25 27 35 27 18z m-106 -60 c3 -5 -8 -22 -24 -37
-22 -21 -33 -26 -41 -18 -8 8 -6 18 6 37 17 25 48 35 59 18z m956 -92 c98 -58
275 -176 313 -209 20 -18 37 -42 37 -52 0 -10 -27 -74 -59 -141 -33 -68 -73
-163 -90 -213 -18 -54 -36 -91 -45 -93 -8 -2 -41 14 -73 36 -32 22 -114 69
-183 106 -69 37 -131 74 -139 81 -19 19 -6 77 65 292 81 247 82 248 174 193z
m1877 18 c38 -50 162 -461 149 -494 -3 -7 -47 -34 -98 -60 -50 -25 -137 -75
-191 -111 -55 -35 -106 -63 -114 -61 -9 2 -23 28 -33 58 -21 68 -99 249 -141
329 -21 40 -28 64 -23 74 13 23 124 103 249 182 61 37 119 74 130 81 26 17 60
17 72 2z m-3453 -83 l24 -16 -30 -77 c-36 -91 -65 -122 -114 -122 -42 0 -44
12 -4 27 40 15 46 34 32 115 l-12 68 32 31 c30 29 33 29 40 10 4 -11 18 -27
32 -36z m203 -31 c-2 -2 -12 -2 -21 2 -15 6 -15 7 1 20 15 11 19 10 21 -2 2
-9 2 -18 -1 -20z m99 5 c3 -6 1 -16 -5 -22 -13 -13 -65 8 -56 23 8 13 52 13
61 -1z m17 -106 c-7 -2 -21 -2 -30 0 -10 3 -4 5 12 5 17 0 24 -2 18 -5z m-670
-157 c25 -20 21 -26 -18 -26 -38 0 -38 0 -29 24 7 19 23 20 47 2z m365 -58 c7
-7 12 -20 12 -30 0 -15 -3 -16 -26 -6 -23 11 -29 10 -44 -10 -21 -26 -30 -28
-30 -7 0 47 59 82 88 53z m4308 -35 c4 -14 4 -77 0 -141 -34 -588 -194 -1036
-492 -1376 -125 -143 -311 -291 -377 -300 -143 -20 -202 -30 -267 -47 -90 -24
-245 -76 -282 -95 -30 -16 -58 -18 -58 -6 0 4 29 53 65 108 286 435 399 902
329 1366 -6 44 -4 50 23 75 68 64 330 211 505 284 190 79 503 174 536 162 7
-3 15 -16 18 -30z m-3554 -2 c307 -80 565 -191 803 -346 44 -29 91 -64 104
-79 24 -25 24 -27 11 -98 -16 -92 -17 -382 -1 -473 58 -330 168 -608 340 -865
39 -58 67 -108 62 -113 -4 -4 -46 7 -92 26 -178 73 -268 96 -525 133 -67 10
-278 187 -407 342 -207 248 -348 578 -412 962 -30 183 -51 438 -40 500 8 49 9
49 157 11z m-1084 -53 c-5 -16 -48 -24 -48 -10 0 11 17 20 38 21 8 1 12 -5 10
-11z m102 -184 c13 -33 13 -34 -9 -34 -38 0 -81 22 -81 41 0 16 7 19 40 19 34
0 42 -4 50 -26z m-230 -155 c12 -21 -1 -49 -21 -49 -10 0 -12 53 -2 63 9 10
11 9 23 -14z m912 4 c9 -10 19 -45 23 -78 57 -494 270 -957 574 -1248 51 -48
89 -92 86 -97 -3 -6 -24 -10 -45 -10 -22 0 -62 -5 -90 -11 -61 -13 -61 -13
-182 100 -196 184 -358 448 -468 760 -68 194 -129 452 -130 547 0 48 14 54
120 54 80 0 100 -3 112 -17z m4226 -27 c2 -22 -8 -100 -23 -173 -81 -412 -243
-768 -470 -1033 -74 -87 -194 -197 -229 -209 -22 -8 -180 9 -191 21 -4 3 40
53 97 110 238 235 385 496 489 867 27 99 60 258 74 366 4 28 13 60 21 73 14
22 20 23 122 20 l107 -3 3 -39z m-3238 -1560 c179 -22 270 -44 435 -103 171
-60 415 -186 415 -213 0 -15 -297 -159 -417 -203 -222 -81 -362 -107 -593
-107 -219 0 -374 28 -600 110 -93 34 -387 177 -397 193 -10 17 35 47 182 118
210 102 380 160 545 188 201 33 270 36 430 17z m2320 -1 c74 -8 146 -17 160
-20 14 -4 45 -11 70 -17 197 -46 612 -230 618 -274 3 -18 -20 -33 -160 -102
-519 -260 -946 -287 -1458 -92 -30 11 -68 26 -85 32 -48 18 -258 125 -280 142
-20 16 -20 16 5 37 36 32 289 153 404 194 147 53 225 72 426 104 82 13 150 12
300 -4z m-1209 -476 c46 -28 128 -73 183 -100 124 -61 128 -65 121 -101 -24
-105 -91 -281 -176 -457 -67 -139 -202 -375 -221 -387 -15 -9 -30 10 -108 139
-171 282 -338 697 -300 742 6 8 66 41 133 74 67 33 149 78 182 100 33 22 69
40 81 40 11 1 59 -22 105 -50z m2119 37 c0 -11 -19 -15 -25 -6 -3 5 1 10 9 10
9 0 16 -2 16 -4z m-137 -173 c8 -7 -19 -52 -42 -70 -24 -19 -49 -15 -61 8 -15
27 10 56 54 62 17 2 34 5 37 5 3 1 9 -1 12 -5z m659 -23 c21 0 24 -23 4 -39
-22 -19 -46 -2 -46 32 0 24 3 28 12 19 7 -7 20 -12 30 -12z m-3314 -82 c14
-18 42 -116 42 -148 0 -22 -8 -30 -47 -48 -63 -28 -232 -92 -245 -92 -18 0
-37 68 -40 150 l-3 84 65 14 c36 8 90 22 120 32 67 22 94 24 108 8z m1327 -26
l110 -29 -3 -74 c-4 -89 -18 -148 -37 -156 -24 -8 -280 95 -296 119 -6 10 29
143 45 167 10 15 24 13 181 -27z m1595 -2 c0 -11 -40 -50 -52 -50 -4 0 -5 7
-3 15 3 8 7 22 10 30 5 16 45 21 45 5z m-310 -131 c0 -5 -7 -9 -15 -9 -15 0
-20 12 -9 23 8 8 24 -1 24 -14z m499 -41 c-12 -18 -24 -34 -25 -36 -1 -2 -14
4 -28 13 -35 23 -35 49 1 42 34 -6 53 1 53 21 0 12 3 13 11 5 9 -9 5 -20 -12
-45z m-339 -228 c0 -5 -9 -10 -20 -10 -11 0 -20 5 -20 10 0 6 9 10 20 10 11 0
20 -4 20 -10z m36 -90 c8 0 14 -4 14 -10 0 -5 -16 -10 -35 -10 -33 0 -43 8
-28 24 4 3 13 4 21 1 7 -3 20 -5 28 -5z m-616 -16 c0 -11 -5 -14 -16 -10 -9 3
-20 6 -25 6 -6 0 -7 5 -4 10 10 16 45 12 45 -6z m685 -14 c-3 -5 -10 -10 -16
-10 -5 0 -9 5 -9 10 0 6 7 10 16 10 8 0 12 -4 9 -10z m43 -60 c-14 -22 -24
-25 -33 -10 -9 15 4 30 26 30 17 0 18 -3 7 -20z m-418 -61 c0 -25 -22 -49 -45
-49 -31 0 -31 7 -3 37 22 24 48 31 48 12z m255 -57 c20 -45 20 -42 -21 -90
-53 -62 -104 -52 -104 21 0 20 27 83 53 124 12 19 55 -13 72 -55z m159 -2 c9
-31 7 -35 -24 -62 -40 -32 -93 -39 -83 -10 11 30 77 112 87 109 6 -2 15 -19
20 -37z m-564 -31 c-7 -11 -14 -18 -17 -15 -3 3 0 12 7 21 18 21 23 19 10 -6z
m-31 -139 c25 0 31 -4 31 -22 1 -33 20 -53 63 -67 25 -9 39 -20 43 -37 9 -35
-2 -58 -24 -49 -9 5 -33 11 -53 14 -20 3 -53 21 -74 39 l-37 33 22 24 c28 30
20 53 -20 61 -16 4 -27 10 -24 15 3 5 13 5 24 -1 10 -5 32 -10 49 -10z m376
-112 c-14 -29 -25 -59 -25 -66 0 -15 -47 -159 -59 -180 -6 -11 -10 -11 -20 2
-8 9 -22 16 -32 16 -11 0 -28 9 -40 21 -11 11 -39 26 -62 33 -49 14 -57 35
-23 56 27 17 124 99 200 171 l50 47 18 -23 c17 -22 17 -25 -7 -77z m-836 20
c1 -11 -21 -10 -39 2 -13 9 -12 12 5 25 18 14 20 14 27 -2 3 -10 7 -21 7 -25z
m476 -144 c20 -15 20 -16 -10 -40 -54 -45 -115 -85 -115 -76 0 25 33 82 60
106 36 30 38 30 65 10z m-697 -95 c-2 -6 -8 -10 -13 -10 -5 0 -11 4 -13 10 -2
6 4 11 13 11 9 0 15 -5 13 -11z m117 -144 c-5 -1 -30 -9 -55 -16 -25 -7 -60
-21 -79 -31 -18 -11 -38 -17 -43 -16 -14 5 63 55 93 61 27 5 100 7 84 2z"/>
<path d="M577 6820 c-10 -40 15 -68 44 -50 10 7 11 16 3 37 -12 35 -39 42 -47
13z"/>
<path d="M904 6796 c-10 -26 0 -61 19 -64 23 -5 33 24 17 54 -15 27 -28 31
-36 10z"/>
<path d="M2239 6803 c-20 -5 -49 -65 -49 -102 0 -34 14 -41 79 -41 54 0 75 17
84 65 3 17 8 40 12 51 6 20 3 21 -37 21 -23 -1 -50 1 -58 5 -8 3 -22 4 -31 1z"/>
<path d="M353 6730 c-51 -21 -47 -72 7 -85 35 -8 61 14 63 55 2 31 -1 35 -23
37 -14 1 -35 -2 -47 -7z"/>
<path d="M2040 6687 c-41 -16 -102 -38 -135 -47 -46 -13 -60 -21 -60 -36 0
-16 9 -19 55 -22 32 -2 70 3 95 12 52 21 128 86 124 108 -4 14 -14 12 -79 -15z"/>
<path d="M27 6676 c-8 -20 -2 -49 11 -54 12 -4 20 25 14 51 -5 21 -18 22 -25
3z"/>
<path d="M1256 6671 c-8 -12 12 -111 25 -128 18 -21 24 -16 42 39 15 47 15 55
2 75 -15 23 -58 32 -69 14z"/>
<path d="M587 6654 c-33 -18 -47 -42 -40 -75 3 -16 -1 -30 -11 -38 -38 -32 -7
-63 32 -34 15 11 35 22 45 26 9 3 17 14 17 23 0 9 -8 23 -17 30 -17 12 -17 14
5 29 43 31 18 64 -31 39z"/>
<path d="M1612 6613 c-18 -7 -33 -39 -26 -57 8 -21 87 -22 103 -2 29 34 -29
79 -77 59z"/>
<path d="M812 6593 c-54 -19 -79 -54 -64 -88 7 -15 21 -25 34 -26 13 -1 30 -2
38 -3 8 -2 23 -3 32 -4 10 -1 20 -13 24 -27 7 -27 52 -65 77 -65 18 0 49 83
40 108 -13 36 -56 83 -93 102 -22 11 -41 20 -42 19 -2 0 -22 -7 -46 -16z"/>
<path d="M2220 6590 c0 -5 5 -10 10 -10 6 0 10 5 10 10 0 6 -4 10 -10 10 -5 0
-10 -4 -10 -10z"/>
<path d="M214 6485 c-10 -26 5 -65 25 -65 26 0 34 28 16 56 -18 27 -33 31 -41
9z"/>
<path d="M1120 6401 c0 -47 8 -71 24 -71 19 0 86 50 86 64 0 14 -67 46 -95 46
-11 0 -15 -11 -15 -39z"/>
<path d="M30 6377 c0 -22 30 -57 50 -57 29 0 44 35 24 54 -19 19 -74 21 -74 3z"/>
<path d="M570 6331 c-39 -11 -34 -32 20 -86 56 -55 68 -53 80 14 12 69 -21 94
-100 72z"/>
<path d="M880 6273 c-27 -10 -70 -56 -70 -75 0 -25 47 -43 68 -26 12 11 52 89
52 104 0 5 -32 4 -50 -3z"/>
<path d="M544 6094 c-22 -33 -6 -52 32 -38 36 12 54 41 34 54 -26 16 -49 11
-66 -16z"/>
<path d="M295 6100 c-11 -18 5 -48 51 -90 52 -48 68 -44 78 21 10 62 -5 79
-69 79 -29 0 -57 -5 -60 -10z"/>
<path d="M1026 6061 c-43 -9 -43 -29 -2 -46 46 -19 70 -19 87 1 11 14 10 19
-10 35 -24 20 -28 20 -75 10z"/>
<path d="M735 6040 c-35 -39 6 -67 53 -34 26 18 29 39 6 48 -26 10 -40 7 -59
-14z"/>
<path d="M617 5793 c-4 -3 -7 -32 -7 -64 0 -72 -18 -82 -45 -25 -11 22 -27 42
-35 44 -10 1 -32 -27 -61 -80 -68 -120 -73 -142 -55 -228 8 -40 17 -74 20 -77
10 -10 159 152 176 192 l17 40 73 0 c67 0 74 2 93 27 14 19 21 44 21 75 l1 48
-75 27 c-76 27 -111 33 -123 21z"/>
<path d="M113 5745 c-29 -20 -83 -107 -83 -133 0 -12 13 -36 28 -54 35 -38 62
-33 62 11 0 41 14 46 67 26 52 -20 68 -12 79 41 5 24 0 37 -22 64 -25 29 -77
60 -101 60 -5 0 -18 -7 -30 -15z"/>
<path d="M549 5422 c-86 -55 -118 -114 -84 -158 26 -34 18 -61 -30 -101 -25
-20 -45 -45 -45 -54 0 -17 44 -59 61 -59 5 0 27 17 49 39 22 21 55 44 72 50
71 26 83 36 83 66 0 21 -8 33 -30 46 -16 10 -37 18 -46 18 -38 2 -28 31 24 69
76 57 84 68 62 92 -25 28 -63 25 -116 -8z"/>
<path d="M6482 2637 c-26 -28 -28 -49 -6 -82 22 -34 50 -32 69 5 18 35 19 59
1 83 -18 23 -38 21 -64 -6z"/>
<path d="M6358 2276 c-10 -7 -18 -25 -18 -39 0 -32 29 -43 67 -25 21 10 28 20
28 43 0 26 -4 30 -30 32 -16 2 -38 -3 -47 -11z"/>
<path d="M6644 2164 c-17 -25 -88 -65 -138 -78 -22 -5 -26 -12 -26 -42 0 -32
4 -36 50 -57 28 -12 49 -27 48 -34 -2 -7 -28 -29 -58 -50 -68 -48 -78 -83 -30
-103 27 -11 36 -11 63 2 55 27 116 76 132 108 15 29 15 33 -6 70 -27 48 -19
69 42 114 21 17 39 33 39 37 0 3 -9 18 -21 33 -28 35 -72 35 -95 0z"/>
<path d="M6619 1815 c-68 -70 -87 -97 -103 -149 -6 -19 -14 -19 -102 -1 -44 9
-89 -37 -99 -100 -8 -56 -1 -66 62 -84 26 -8 53 -17 58 -22 6 -4 26 -10 46
-14 31 -6 36 -4 47 19 8 18 8 34 0 56 -8 26 -8 35 5 47 14 14 17 11 36 -31 30
-65 45 -62 92 19 60 105 74 141 72 185 -2 68 -17 143 -29 147 -6 2 -44 -30
-85 -72z"/>
<path d="M7020 1691 c0 -16 -6 -33 -12 -39 -14 -11 -65 -5 -74 9 -3 5 -14 9
-24 9 -20 0 -50 -49 -50 -82 0 -27 72 -94 109 -101 42 -9 65 4 96 53 13 21 29
41 35 45 21 13 11 78 -17 107 -36 38 -63 37 -63 -1z"/>
<path d="M6111 1592 c-12 -34 -11 -43 7 -78 21 -41 40 -54 105 -74 43 -13 72
-7 64 14 -10 25 -140 176 -152 176 -7 0 -17 -17 -24 -38z"/>
<path d="M6720 1265 c-7 -9 -15 -37 -18 -63 -6 -63 8 -74 85 -70 80 4 83 27
13 97 -56 56 -61 58 -80 36z"/>
<path d="M6348 1253 c-36 -19 -38 -58 -4 -67 32 -8 50 0 66 29 11 20 11 27 0
40 -15 18 -26 18 -62 -2z"/>
<path d="M6530 1180 c-34 -29 -34 -30 -16 -45 41 -31 90 -8 84 40 -4 40 -26
42 -68 5z"/>
<path d="M6238 1073 c-18 -22 -44 -101 -35 -109 20 -20 127 52 127 86 0 39
-64 55 -92 23z"/>
<path d="M6466 1038 c-11 -35 -15 -83 -10 -104 6 -24 10 -25 73 -22 86 4 91
22 25 89 -47 48 -81 62 -88 37z"/>
<path d="M5946 909 c-11 -10 -25 -19 -32 -19 -15 0 -28 -35 -19 -50 3 -5 12
-10 19 -10 7 0 30 -9 52 -19 21 -11 42 -17 46 -14 10 5 10 59 2 102 -8 37 -38
41 -68 10z"/>
<path d="M7022 918 c-16 -16 -15 -43 1 -55 6 -6 29 -13 50 -17 34 -6 37 -5 37
17 0 26 -38 67 -61 67 -8 0 -20 -5 -27 -12z"/>
<path d="M5298 873 c-72 -97 -75 -121 -16 -163 74 -54 79 -48 76 87 -2 69 -7
118 -13 120 -6 2 -27 -18 -47 -44z"/>
<path d="M4898 853 c-54 -57 -93 -139 -82 -172 8 -22 16 -26 53 -29 40 -3 46
0 87 43 38 39 44 51 44 89 0 52 -25 106 -49 106 -9 0 -33 -17 -53 -37z"/>
<path d="M6139 825 c-20 -42 -20 -47 -6 -78 16 -33 65 -83 105 -105 19 -10 30
-10 60 0 76 26 109 60 97 99 -8 24 -61 49 -105 49 -22 0 -30 5 -30 18 0 27
-42 62 -73 62 -22 0 -31 -8 -48 -45z"/>
<path d="M6860 797 c0 -21 7 -41 20 -52 27 -25 42 -9 38 41 -3 34 -6 39 -30
42 -26 3 -28 1 -28 -31z"/>
<path d="M6560 750 c0 -5 -15 -16 -34 -24 -46 -19 -52 -33 -25 -62 l23 -25
-22 -6 c-26 -6 -31 -50 -6 -60 20 -8 62 17 88 51 17 22 17 27 5 42 -12 14 -10
19 9 34 26 21 29 45 6 54 -24 9 -44 7 -44 -4z"/>
<path d="M5442 714 c-29 -20 -28 -48 3 -68 36 -24 70 -20 94 10 25 32 26 38 5
58 -20 20 -73 20 -102 0z"/>
<path d="M5812 708 c-28 -58 -36 -96 -23 -112 17 -21 71 -47 82 -40 12 7 11
121 -1 129 -5 3 -10 15 -10 26 0 27 -34 25 -48 -3z"/>
<path d="M5150 681 c-8 -5 -28 -15 -44 -22 -45 -21 -116 -89 -116 -110 0 -20
19 -25 48 -10 9 5 28 13 42 19 14 5 46 19 72 31 26 12 55 21 63 21 29 0 85 29
85 44 0 8 -9 20 -19 26 -23 12 -109 12 -131 1z"/>
<path d="M7073 621 c-12 -18 -7 -61 6 -61 16 0 31 26 31 52 0 32 -20 37 -37 9z"/>
<path d="M4798 593 c-8 -10 -21 -36 -28 -58 -7 -22 -17 -45 -22 -52 -21 -27
25 -46 50 -21 8 8 15 8 26 -1 8 -7 29 -13 47 -13 47 -2 70 32 67 102 l-3 55
-61 3 c-48 2 -63 -1 -76 -15z"/>
<path d="M6712 598 c-5 -7 -12 -33 -13 -58 -4 -45 -4 -45 27 -44 52 3 89 25
92 57 2 19 -3 33 -15 43 -23 17 -77 18 -91 2z"/>
<path d="M5460 551 c0 -11 -4 -23 -10 -26 -5 -3 -10 -23 -10 -44 0 -70 115
-172 161 -143 10 7 25 12 33 12 7 0 25 9 40 21 19 15 26 30 26 55 0 38 -24 54
-81 54 -23 0 -34 8 -50 35 -24 40 -46 55 -83 55 -19 0 -26 -5 -26 -19z"/>
<path d="M5151 498 c-17 -17 -31 -37 -31 -43 0 -25 86 -73 102 -57 4 4 5 36 2
70 -8 73 -24 80 -73 30z"/>
<path d="M6169 514 c-10 -13 -10 -20 4 -42 20 -34 61 -37 65 -5 7 51 -39 83
-69 47z"/>
<path d="M6494 476 c-10 -25 4 -64 27 -77 29 -15 41 0 37 47 -3 34 -6 39 -31
42 -18 2 -29 -2 -33 -12z"/>
<path d="M5169 332 c-37 -26 -19 -82 34 -106 91 -41 137 -21 137 58 0 25 -6
48 -14 55 -18 15 -132 10 -157 -7z"/>
<path d="M6016 288 c-20 -29 -21 -87 -1 -94 8 -3 34 1 57 8 57 19 75 60 39 89
-32 26 -76 25 -95 -3z"/>
<path d="M6384 205 c-10 -24 4 -63 26 -75 17 -9 22 -7 32 15 8 19 8 31 0 50
-13 28 -49 34 -58 10z"/>
<path d="M6548 56 c-27 -20 -23 -46 6 -46 25 0 43 30 31 50 -8 13 -16 12 -37
-4z"/>
</g>
</svg>
